# xmcd CD database file generated by OrangeCD 5.2
#
# Track frame offsets:
#	150
#	12088
#	23419
#	35645
#	47487
#	64013
#	76355
#	87070
#	96320
#	107114
#	120944
#	134904
#
# Disc length: 1936 seconds
#
# Revision: 0
# Processed by: cddbd v1.5.1PL0 Copyright (c) Steve Scherf et al.
# Submitted via: OrangeCD 5.2
#
DISCID=8f078e0c
DTITLE=Johnny Cash - Destination Victoria Station
DYEAR=1975
DGENRE=
TTITLE0=Casey Jones
TTITLE1=Hey Porter
TTITLE2=John Henry
TTITLE3=Wabash Cannonbal
TTITLE4=City Of New Orleans
TTITLE5=Folsom Prison Blues
TTITLE6=Crystal Chandeliers And Burgundy
TTITLE7=Wreck Of The Old 97
TTITLE8=Waiting For A Train
TTITLE9=Orange Blossom Special
TTITLE10=Texas 1947
TTITLE11=Destination Victoria Station
EXTD=
EXTT0=
EXTT1=
EXTT2=
EXTT3=
EXTT4=
EXTT5=
EXTT6=
EXTT7=
EXTT8=
EXTT9=
EXTT10=
EXTT11=
PLAYORDER=
